<mxfile host="app.diagrams.net" agent="Mozilla/5.0 (Windows NT 10.0; Win64; x64) AppleWebKit/537.36 (KHTML, like Gecko) Chrome/133.0.0.0 Safari/537.36" version="26.0.16">
  <diagram name="第 1 页" id="NYAHmZdo7RJEw3XMNGgZ">
    <mxGraphModel dx="2261" dy="746" grid="1" gridSize="10" guides="1" tooltips="1" connect="1" arrows="1" fold="1" page="1" pageScale="1" pageWidth="827" pageHeight="1169" math="0" shadow="0">
      <root>
        <mxCell id="0" />
        <mxCell id="1" parent="0" />
        <mxCell id="kVFHtvn2Wa6zKX1NSNJ2-32" style="edgeStyle=orthogonalEdgeStyle;rounded=0;orthogonalLoop=1;jettySize=auto;html=1;entryX=0;entryY=0.25;entryDx=0;entryDy=0;" edge="1" parent="1" source="kVFHtvn2Wa6zKX1NSNJ2-1">
          <mxGeometry relative="1" as="geometry">
            <mxPoint x="310" y="345" as="targetPoint" />
            <mxPoint x="190" y="170" as="sourcePoint" />
            <Array as="points">
              <mxPoint x="190" y="345" />
            </Array>
          </mxGeometry>
        </mxCell>
        <mxCell id="kVFHtvn2Wa6zKX1NSNJ2-33" value="创建实例对象" style="edgeLabel;html=1;align=center;verticalAlign=middle;resizable=0;points=[];" vertex="1" connectable="0" parent="kVFHtvn2Wa6zKX1NSNJ2-32">
          <mxGeometry x="-0.3705" y="-3" relative="1" as="geometry">
            <mxPoint as="offset" />
          </mxGeometry>
        </mxCell>
        <mxCell id="kVFHtvn2Wa6zKX1NSNJ2-1" value="function Student(){}" style="rounded=0;whiteSpace=wrap;html=1;" vertex="1" parent="1">
          <mxGeometry x="110" y="80" width="170" height="80" as="geometry" />
        </mxCell>
        <mxCell id="kVFHtvn2Wa6zKX1NSNJ2-19" style="edgeStyle=orthogonalEdgeStyle;rounded=0;orthogonalLoop=1;jettySize=auto;html=1;entryX=1;entryY=0.5;entryDx=0;entryDy=0;" edge="1" parent="1">
          <mxGeometry relative="1" as="geometry">
            <mxPoint x="540" y="150" as="sourcePoint" />
            <mxPoint x="280" y="150" as="targetPoint" />
          </mxGeometry>
        </mxCell>
        <mxCell id="kVFHtvn2Wa6zKX1NSNJ2-2" value="共享属性和方法&lt;div&gt;prototype.consturctor&lt;/div&gt;" style="rounded=0;whiteSpace=wrap;html=1;" vertex="1" parent="1">
          <mxGeometry x="540" y="75" width="200" height="90" as="geometry" />
        </mxCell>
        <mxCell id="kVFHtvn2Wa6zKX1NSNJ2-15" style="edgeStyle=orthogonalEdgeStyle;rounded=0;orthogonalLoop=1;jettySize=auto;html=1;entryX=0.5;entryY=1;entryDx=0;entryDy=0;" edge="1" parent="1" source="kVFHtvn2Wa6zKX1NSNJ2-3" target="kVFHtvn2Wa6zKX1NSNJ2-2">
          <mxGeometry relative="1" as="geometry">
            <mxPoint x="640" y="170" as="targetPoint" />
          </mxGeometry>
        </mxCell>
        <mxCell id="kVFHtvn2Wa6zKX1NSNJ2-16" value="&lt;span style=&quot;font-size: 12px; text-align: left; text-wrap-mode: wrap; background-color: rgb(251, 251, 251);&quot;&gt;xm.__proto__：&lt;/span&gt;&lt;span style=&quot;color: rgb(51, 51, 51); font-family: &amp;quot;Open Sans&amp;quot;, &amp;quot;Clear Sans&amp;quot;, &amp;quot;Helvetica Neue&amp;quot;, Helvetica, Arial, &amp;quot;Segoe UI Emoji&amp;quot;, sans-serif; font-size: 16px; orphans: 4; text-align: left; white-space: pre-wrap;&quot;&gt;当前实例对象指向哪个原型对象prototype&lt;/span&gt;" style="edgeLabel;html=1;align=center;verticalAlign=middle;resizable=0;points=[];" vertex="1" connectable="0" parent="kVFHtvn2Wa6zKX1NSNJ2-15">
          <mxGeometry relative="1" as="geometry">
            <mxPoint x="60" y="-80" as="offset" />
          </mxGeometry>
        </mxCell>
        <mxCell id="kVFHtvn2Wa6zKX1NSNJ2-28" style="edgeStyle=orthogonalEdgeStyle;rounded=0;orthogonalLoop=1;jettySize=auto;html=1;entryX=0.171;entryY=0.975;entryDx=0;entryDy=0;entryPerimeter=0;" edge="1" parent="1" target="kVFHtvn2Wa6zKX1NSNJ2-1">
          <mxGeometry relative="1" as="geometry">
            <mxPoint x="310" y="400" as="sourcePoint" />
            <mxPoint x="142.98000000000002" y="200" as="targetPoint" />
          </mxGeometry>
        </mxCell>
        <mxCell id="kVFHtvn2Wa6zKX1NSNJ2-34" value="Text" style="edgeLabel;html=1;align=center;verticalAlign=middle;resizable=0;points=[];" vertex="1" connectable="0" parent="kVFHtvn2Wa6zKX1NSNJ2-28">
          <mxGeometry x="-0.0208" relative="1" as="geometry">
            <mxPoint as="offset" />
          </mxGeometry>
        </mxCell>
        <mxCell id="kVFHtvn2Wa6zKX1NSNJ2-3" value="var xm= new Student();&lt;div&gt;xm.__proto__&lt;br&gt;&lt;div&gt;xm.__proto__.consturctor&lt;/div&gt;&lt;/div&gt;" style="rounded=0;whiteSpace=wrap;html=1;align=left;" vertex="1" parent="1">
          <mxGeometry x="310" y="310" width="210" height="100" as="geometry" />
        </mxCell>
        <mxCell id="kVFHtvn2Wa6zKX1NSNJ2-4" value="构造函数" style="text;html=1;align=center;verticalAlign=middle;resizable=0;points=[];autosize=1;strokeColor=none;fillColor=none;" vertex="1" parent="1">
          <mxGeometry x="120" y="30" width="70" height="30" as="geometry" />
        </mxCell>
        <mxCell id="kVFHtvn2Wa6zKX1NSNJ2-5" value="对象实例" style="text;html=1;align=center;verticalAlign=middle;resizable=0;points=[];autosize=1;strokeColor=none;fillColor=none;" vertex="1" parent="1">
          <mxGeometry x="360" y="410" width="70" height="30" as="geometry" />
        </mxCell>
        <mxCell id="kVFHtvn2Wa6zKX1NSNJ2-6" value="原型对象：prototype" style="text;html=1;align=center;verticalAlign=middle;resizable=0;points=[];autosize=1;strokeColor=none;fillColor=none;" vertex="1" parent="1">
          <mxGeometry x="550" y="40" width="130" height="30" as="geometry" />
        </mxCell>
        <mxCell id="kVFHtvn2Wa6zKX1NSNJ2-20" value="&lt;span style=&quot;text-wrap-mode: wrap;&quot;&gt;prototype.consturctor 指向该原型的构造函数&lt;/span&gt;" style="text;html=1;align=center;verticalAlign=middle;resizable=0;points=[];autosize=1;strokeColor=none;fillColor=none;" vertex="1" parent="1">
          <mxGeometry x="265" y="120" width="260" height="30" as="geometry" />
        </mxCell>
        <mxCell id="kVFHtvn2Wa6zKX1NSNJ2-26" value="" style="endArrow=classic;html=1;rounded=0;entryX=0;entryY=0.189;entryDx=0;entryDy=0;entryPerimeter=0;exitX=1;exitY=0.15;exitDx=0;exitDy=0;exitPerimeter=0;" edge="1" parent="1" source="kVFHtvn2Wa6zKX1NSNJ2-1" target="kVFHtvn2Wa6zKX1NSNJ2-2">
          <mxGeometry width="50" height="50" relative="1" as="geometry">
            <mxPoint x="380" y="90" as="sourcePoint" />
            <mxPoint x="430" y="40" as="targetPoint" />
          </mxGeometry>
        </mxCell>
        <mxCell id="kVFHtvn2Wa6zKX1NSNJ2-27" value="prototype 指向原型对象" style="edgeLabel;html=1;align=center;verticalAlign=middle;resizable=0;points=[];" vertex="1" connectable="0" parent="kVFHtvn2Wa6zKX1NSNJ2-26">
          <mxGeometry x="-0.2462" y="2" relative="1" as="geometry">
            <mxPoint as="offset" />
          </mxGeometry>
        </mxCell>
        <mxCell id="kVFHtvn2Wa6zKX1NSNJ2-35" value="&lt;span style=&quot;text-align: left; text-wrap-mode: wrap;&quot;&gt;__proto__.consturctor：指向创建该实例的构造函数&lt;/span&gt;" style="text;html=1;align=center;verticalAlign=middle;resizable=0;points=[];autosize=1;strokeColor=none;fillColor=none;" vertex="1" parent="1">
          <mxGeometry x="-70" y="298" width="300" height="30" as="geometry" />
        </mxCell>
      </root>
    </mxGraphModel>
  </diagram>
</mxfile>
